<?xml version="1.0" encoding="UTF-8" standalone="no"?>
<svg
   version="1.1"
   id="Layer_1"
   x="0px"
   y="0px"
   width="100%"
   viewBox="0 0 1024 1024"
   enable-background="new 0 0 1024 1024"
   xml:space="preserve"
   sodipodi:docname="favicon.svg"
   inkscape:version="1.4.2 (ebf0e940, 2025-05-08)"
   xmlns:inkscape="http://www.inkscape.org/namespaces/inkscape"
   xmlns:sodipodi="http://sodipodi.sourceforge.net/DTD/sodipodi-0.dtd"
   xmlns:xlink="http://www.w3.org/1999/xlink"
   xmlns="http://www.w3.org/2000/svg"
   xmlns:svg="http://www.w3.org/2000/svg"><defs
   id="defs2"><linearGradient
     id="linearGradient7"
     inkscape:collect="always"><stop
       style="stop-color:#e3e2db;stop-opacity:1;"
       offset="0"
       id="stop7" /><stop
       style="stop-color:#280b0b;stop-opacity:1"
       offset="1"
       id="stop8" /></linearGradient><linearGradient
     inkscape:collect="always"
     xlink:href="#linearGradient7"
     id="linearGradient8"
     x1="834.48279"
     y1="162.06897"
     x2="251.72415"
     y2="555.17242"
     gradientUnits="userSpaceOnUse" /></defs><sodipodi:namedview
   id="namedview2"
   pagecolor="#ffffff"
   bordercolor="#000000"
   borderopacity="0.25"
   inkscape:showpageshadow="2"
   inkscape:pageopacity="0.0"
   inkscape:pagecheckerboard="0"
   inkscape:deskcolor="#d1d1d1"
   inkscape:zoom="0.29"
   inkscape:cx="643.10345"
   inkscape:cy="329.31034"
   inkscape:window-width="1472"
   inkscape:window-height="894"
   inkscape:window-x="1920"
   inkscape:window-y="115"
   inkscape:window-maximized="0"
   inkscape:current-layer="Layer_1" />

<g
   id="g7"
   style="fill-opacity:1;fill:url(#linearGradient8)"><g
     id="g2"
     transform="matrix(2.4452002,0,0,2.4452002,-791.28842,-754.43126)"
     style="fill:url(#linearGradient8);fill-opacity:1.0"><path
       fill="#000000"
       opacity="1"
       stroke="none"
       d="m 497.78449,432.48724 c 7.93341,11.75168 7.01559,25.4263 -2.24256,36.80646 -0.84067,1.03333 -1.81039,1.97202 -2.56827,3.06043 -2.14065,3.07434 -1.39053,4.83215 2.36679,5.48465 1.30249,0.22616 2.6575,0.20446 3.98847,0.20395 12.99963,-0.005 26.0003,-0.13068 38.99817,0.014 3.78479,0.0421 5.91485,-1.0246 7.54944,-4.76709 5.07922,-11.62942 16.98932,-17.21054 29.71075,-14.49576 11.86646,2.53235 19.77734,12.68479 19.81415,25.42841 0.0371,12.85031 -7.79596,22.8439 -20.14545,25.70181 -12.04364,2.78711 -24.65765,-3.43069 -29.46478,-15.044 -1.48407,-3.5853 -3.38922,-4.61326 -7.04242,-4.60111 -38.1655,0.12692 -76.33145,0.0995 -114.49729,0.15308 -1.8135,0.003 -3.6773,0.15948 -5.42983,0.59658 -4.49006,1.11991 -7.22239,3.91065 -7.61207,8.70292 -0.41357,5.08584 1.64466,8.71548 6.32642,10.78726 2.49963,1.10611 5.16104,1.14514 7.84628,1.14368 26.99942,-0.0149 54.01044,0.4909 80.99454,-0.14841 20.59058,-0.48782 46.73798,13.44369 53.58368,42.50162 7.39557,31.39221 -11.96179,61.77752 -43.66364,67.80816 -4.84848,0.92231 -9.95266,0.58972 -14.94122,0.66608 -7.81677,0.11963 -15.64181,-0.59912 -23.43561,0.78534 -13.06967,2.32172 -21.55331,13.37823 -20.57965,27.06897 0.84113,11.8269 11.42179,21.29291 24.15534,21.4292 9.83185,0.10522 19.66888,-0.14685 29.49814,0.0428 12.20108,0.23535 21.1503,7.63629 23.56198,19.10846 2.59387,12.33893 -6.51569,24.42218 -19.17102,25.36084 -2.32294,0.1723 -4.67365,0.25342 -6.99451,0.10675 -3.74701,-0.23681 -6.45047,0.69135 -8.81055,4.12171 -3.88119,5.64123 -12.59369,5.90362 -17.69357,1.1231 -5.1488,-4.82641 -5.27902,-13.94805 -0.27005,-18.92132 4.91144,-4.87647 13.59024,-4.6311 17.88763,0.50574 4.04926,4.84027 6.71704,5.54272 11.1258,2.92956 4.41662,-2.61786 6.3836,-8.72113 4.25769,-13.57153 -1.7157,-3.91437 -4.6846,-6.77484 -8.93314,-7.1944 -7.93799,-0.78387 -15.90039,-1.60217 -23.91647,-0.3479 -5.67276,0.88757 -9.93051,3.59497 -12.87878,8.46246 -1.03562,1.70978 -1.9834,3.48005 -3.1168,5.1222 -7.34744,10.6455 -23.50659,10.9129 -28.31256,-0.89545 -6.63205,-16.29517 -20.37448,-25.02185 -32.27945,-35.90814 -5.15832,-4.71692 -10.98178,-8.73194 -15.44265,-14.1814 -12.85547,-15.70447 -5.1139,-38.75775 14.60079,-43.40326 2.55265,-0.60156 5.28635,-0.58795 7.93693,-0.59527 17.33279,-0.0478 34.66616,0.0473 51.99862,-0.0413 17.69815,-0.0905 31.79788,-10.43927 36.39801,-26.51758 6.61218,-23.11078 -9.78747,-45.44715 -33.8175,-45.63629 -27.49781,-0.21649 -54.99848,-0.045 -82.49787,-0.0906 -22.38726,-0.0371 -38.52133,-14.71753 -39.35418,-37.23596 -0.80777,-21.83966 14.45562,-37.79328 35.03613,-40.45587 3.62045,-0.46836 7.29971,-0.6536 10.95306,-0.66861 21.99927,-0.0905 43.99893,-0.0839 65.99839,-0.13822 2.48602,-0.006 4.9819,0.10984 7.41,-0.76996 5.88528,-2.13259 9.01059,-7.19195 8.0993,-13.28692 -0.84054,-5.62174 -4.88162,-9.03009 -11.17764,-9.40302 -4.13852,-0.24511 -8.284,0.24561 -12.41397,-0.8638 -14.5365,-3.90475 -24.05182,-16.58013 -23.39264,-31.44412 0.66898,-15.08499 11.44983,-27.12347 26.4968,-29.39578 3.44198,-0.51984 6.95684,-0.77063 10.43896,-0.77857 41.33225,-0.0942 82.66483,-0.0645 123.99686,-0.19897 10.80896,-0.0352 17.34674,-7.66678 16.10791,-18.25003 -0.78272,-6.68698 -5.81293,-11.92645 -12.5094,-12.10294 -11.49194,-0.30288 -22.99768,-0.0486 -34.49426,-0.23355 -3.50458,-0.0564 -4.3263,2.42511 -5.69232,4.68244 -4.44074,7.33804 -12.50123,10.54092 -21.10163,8.4786 -7.81854,-1.87478 -13.84021,-9.12704 -14.33197,-17.26068 -0.5509,-9.11377 3.8421,-16.54736 11.60156,-19.63141 8.80182,-3.49832 18.3664,-1.00299 23.35688,6.92936 2.44989,3.8941 5.28479,4.71917 9.43145,4.70721 39.16547,-0.11298 78.33142,-0.10962 117.49713,-0.0662 14.01697,0.0155 26.90442,3.53189 36.52155,14.36828 13.33759,15.02845 16.7273,32.2724 9.2168,51.06903 -6.8761,17.20917 -23.42871,27.88498 -42.43036,27.96259 -20.82172,0.085 -41.64417,0.18839 -62.46546,0.0939 -8.96582,-0.0407 -16.78509,-3.94189 -21.10058,-11.44854 -9.45355,-16.44452 -23.60584,-20.5813 -41.37183,-19.80338 -20.45996,0.89587 -40.98993,0.19895 -61.48947,0.18475 -5.86444,-0.004 -11.22427,1.41086 -15.59058,5.55835 -4.62106,4.3895 -6.12741,10.78229 -3.94995,16.49933 2.29294,6.0202 6.24927,8.53034 13.67227,8.53684 14.83289,0.013 29.66633,-0.0872 44.49842,0.0169 3.50024,0.0246 5.68927,-0.82162 7.43231,-4.30032 3.97394,-7.93097 13.36249,-11.73279 22.1286,-9.65533 9.01196,2.13574 15.00897,9.51791 15.52753,19.11425 0.45782,8.47095 -5.57807,17.19895 -13.83087,19.99982 -8.64154,2.9328 -18.14667,0.10727 -22.76014,-7.68738 -2.51983,-4.25741 -5.42138,-5.41021 -10.05133,-5.26208 -9.98962,0.31961 -19.99698,0.0495 -29.99569,0.15323 -1.55829,0.0162 -4.82984,-1.0333 -2.75955,3.12124 m 138.4942,-77.87182 c -1.07593,0.78259 -2.24304,1.46667 -3.21277,2.36401 -5.75,5.32074 -7.24262,14.38886 -3.61133,21.5701 3.41272,6.74905 10.70606,10.68039 17.66095,9.57877 7.6402,-1.21021 12.95434,-5.42713 15.06244,-12.80713 1.95465,-6.84287 0.63916,-13.3533 -4.85089,-18.31028 -6.06598,-5.47686 -12.98639,-6.27154 -21.0484,-2.39547 z"
       id="path1"
       style="fill:url(#linearGradient8);fill-opacity:1.0" /><path
       fill="#000000"
       opacity="1"
       stroke="none"
       d="m 472.54892,578.69904 c -10.21469,6.07525 -18.5658,4.47131 -25.47641,-4.87049 -1.48959,-2.01373 -3.13968,-2.71081 -5.45526,-2.71612 -21.99027,-0.0503 -43.98071,-0.093 -65.97025,-0.25745 -2.97821,-0.0223 -4.36892,1.57758 -5.90823,3.72675 -4.32385,6.0368 -11.84314,8.25415 -18.61465,5.76507 -6.9339,-2.5487 -11.60435,-9.37317 -11.35984,-16.59924 0.25092,-7.41699 5.41147,-13.95105 12.43146,-15.74036 7.06433,-1.80053 14.54242,0.92902 18.16818,7.25092 1.58231,2.75885 3.38159,3.64465 6.34171,3.63336 21.49029,-0.0817 42.98099,-0.0582 64.47155,-0.0781 2.33436,-0.002 4.3744,-0.1203 6.11271,-2.4057 7.24582,-9.52601 17.84936,-11.05201 25.96905,-4.01227 7.67176,6.65136 7.49436,17.8247 -0.71002,26.30359 z"
       id="path2"
       style="fill:url(#linearGradient8);fill-opacity:1.0" /></g></g>
</svg>
